<?xml version="1.0" encoding="utf-8" ?><svg xmlns="http://www.w3.org/2000/svg" xmlns:xlink="http://www.w3.org/1999/xlink" width="766" height="698" viewBox="0 0 766 698"><path fill="white" d="M0 169.98L0.116471 169.697C0.894848 167.754 1.32001 165.764 2.06058 163.824C6.44533 152.34 24.608 148.142 35.0836 144.408L73.2123 130.835C91.8454 124.186 111.471 117.21 128.051 106.428C134.129 102.476 144.808 92.7379 146.727 85.7464C150.734 71.1497 156.382 63.6858 166.618 52.4639C179.196 38.6732 193.107 25.228 210.758 17.9396C249.508 2.55727 299.964 -1.21405 341.338 2.18266C352.111 3.06713 366.669 6.53949 376.546 10.3412C412.216 24.0697 426.253 50.4477 448.565 78.329C464.652 98.5579 481.732 117.977 499.742 136.515C507.353 144.243 516.072 153.425 525.006 159.574C532.434 164.686 546.048 173.915 554.575 176.248C566.851 179.607 582.645 181.532 595.5 182.203C607.043 182.806 621.937 180.979 633.058 183.661C638.896 185.07 645.253 190.524 647.688 196.038C648.708 198.361 649.353 200.83 649.598 203.355C650.151 208.841 649.775 222.874 649.773 228.994L649.737 280.947C649.716 310.041 647.559 310.251 677.144 310.218L722.655 310.174C730.408 310.167 738.382 310.007 746.072 310.309C754.323 310.633 761.18 316.569 764.234 323.965C764.773 325.241 765.309 326.983 766 328.153L766 440.568C764.716 443.791 764.212 445.973 762.373 449.064C754.094 462.981 735.605 459.854 721.409 459.841L676.072 459.791C670.091 459.784 661.755 459.174 656.088 460.933C652.187 462.144 649.548 467.747 649.809 471.543C649.694 480.651 649.759 489.717 649.759 498.805L649.759 552.796C649.76 559.036 650.398 569.494 648.876 575.072C646.653 583.223 637.318 590.777 628.779 590.788C601.624 591.584 574.415 590.429 547.252 590.962C544.762 591.011 542.651 590.998 540.256 591.855C533.369 594.321 533.081 602.689 531.915 608.745C531.046 613.149 530.039 617.523 528.894 621.863C522.472 645.826 507.58 682.123 483.962 694.258C480.82 695.873 477.125 696.63 473.92 698L473.441 698L472.893 697.683C463.272 692.229 483.419 653.414 486.814 645.366C489.356 639.453 491.555 633.398 493.398 627.231C501.97 598.947 502.436 568.258 498.467 539.143C496.878 527.484 493.853 515.974 493.976 504.137C494.085 493.617 497.734 484.359 503.852 475.898C508.073 470.063 513.15 465.17 519.242 461.317C524.534 457.972 530.363 455.53 536.585 454.627C540.635 454.04 544.727 454.19 548.808 454.205C563.345 454.262 572.822 452.976 583.686 442.168C589.247 436.637 603.589 412.468 603.43 405.112C603.234 395.999 591.244 392.004 586.125 385.619C571.493 367.372 579.354 345.273 559.035 326.302C554.294 321.875 548.44 318.329 542.631 315.49C538.207 313.329 523.265 308.35 520.815 305.572C518.1 302.491 529.806 267.132 531.507 260.905C532.65 256.719 533.635 252.442 534.139 248.129C534.479 245.219 535.03 240.497 532.956 238.128C532.276 237.351 531.394 237.117 530.39 237.125C521.4 237.199 475.796 272.181 467.486 279.077C461.948 283.673 456.383 289.43 450.102 292.963C445.605 295.493 440.133 296.909 435.37 298.99C419.12 306.089 404.833 314.522 392.44 327.38C379.883 340.408 371.059 356.553 364.717 373.39C360.726 383.987 357.791 394.935 354.226 405.675C347.68 425.391 338.115 444.971 323.478 459.977C308.852 474.971 290.9 484.831 273.199 495.674C237.619 517.468 204.339 542.157 180.463 576.95C166.527 597.26 156.39 619.503 148.741 642.866C145.263 653.824 142.067 664.869 139.158 675.991C138.161 679.815 135.568 692.798 133.549 694.85C128.339 696.068 126.228 686.211 125.1 682.489C121.031 669.06 119.916 655.085 118.979 641.281C115.503 590.116 136.664 543.682 169.172 505.291C183.295 488.158 203.557 467.258 214.177 448.286C231.852 416.714 233.1 369.766 223.61 335.372C220.265 323.25 214.049 311.117 205.581 301.681C184.367 278.041 154.662 285.753 127.276 285.813C105.049 285.365 79.4046 283.027 59.7402 272.163C34.8111 258.39 23.4749 234.816 14.6837 209.181C13.8161 206.651 8.92575 199.939 7.2582 196.911C3.048 189.266 2.42979 183.244 0.104887 175.293L0 174.943L0 169.98ZM420.836 155.326C419.654 150.531 414.807 133.7 411.272 131.074L410.588 131.189C409.974 134.536 412.899 141.026 413.09 144.493C413.695 155.481 414.973 169.379 413.073 180.143C406.516 217.279 366.292 241.579 336.314 258.672C319.447 268.29 300.551 275.284 288.214 255.876C272.243 229.673 278.798 194.316 283.785 165.823C287.27 146.411 293.568 127.89 294.34 108.128C294.465 104.933 292.937 87.9744 290.041 86.9061C289.286 93.6524 288.672 100.552 287.108 107.24C284.084 120.341 279.095 132.598 275.275 145.459C263.944 183.613 251.47 231.255 277.489 266.328C286.999 279.146 305.195 285.212 320.632 281.361C344.721 275.353 367.668 258.821 387.398 244.27C406.444 229.521 422.041 208.758 423.793 184.395C424.612 173.011 423.305 166.404 420.836 155.326Z"/></svg>